<svg width="1200" height="860" viewBox="0 0 1200 860" fill="none" xmlns="http://www.w3.org/2000/svg">
  <rect width="1200" height="860" rx="56" fill="#0B2842"/>
  <rect width="1200" height="86" rx="56" fill="#203C59"/>
  <rect x="0" y="40" width="1200" height="46" fill="#203C59"/>
  <circle cx="70" cy="43" r="12" fill="#FF5F57"/>
  <circle cx="110" cy="43" r="12" fill="#FEBB2E"/>
  <circle cx="150" cy="43" r="12" fill="#28C840"/>
  <rect x="110" y="146" width="440" height="576" rx="32" fill="#092038"/>
  <rect x="580" y="146" width="514" height="576" rx="32" fill="#0E2C47"/>
  <circle cx="332" cy="326" r="94" fill="#123F61"/>
  <circle cx="332" cy="302" r="22" stroke="#75C8EE" stroke-width="8"/>
  <path d="M289 382C289 353.833 311.833 331 340 331H324C352.167 331 375 353.833 375 382V398H289V382Z" stroke="#75C8EE" stroke-width="8" stroke-linejoin="round"/>
  <text x="228" y="486" fill="white" font-size="50" font-family="Inter, Arial, sans-serif" font-weight="800">Priya Nair</text>
  <text x="218" y="540" fill="#4BC6FF" font-size="36" font-family="Inter, Arial, sans-serif" font-weight="500">Product Designer</text>
  <rect x="188" y="588" width="284" height="40" rx="20" fill="#133957"/>
  <text x="230" y="614" fill="#9ADFFD" font-size="24" font-family="Inter, Arial, sans-serif" font-weight="700">Portfolio • UX Systems</text>
  <text x="626" y="214" fill="#F8FBFF" font-size="28" font-family="Inter, Arial, sans-serif" font-weight="800">Interview Decision Snapshot</text>
  <rect x="626" y="256" width="198" height="124" rx="24" fill="#144866"/>
  <text x="664" y="306" fill="#F8FBFF" font-size="30" font-family="Inter, Arial, sans-serif" font-weight="800">88%</text>
  <text x="665" y="346" fill="#9CC0DA" font-size="24" font-family="Inter, Arial, sans-serif" font-weight="500">Role fit</text>
  <rect x="850" y="256" width="198" height="124" rx="24" fill="#175649"/>
  <text x="887" y="306" fill="#F8FFF9" font-size="30" font-family="Inter, Arial, sans-serif" font-weight="800">Strong</text>
  <text x="887" y="346" fill="#A5D7CC" font-size="24" font-family="Inter, Arial, sans-serif" font-weight="500">Communication</text>
  <rect x="626" y="408" width="422" height="118" rx="26" fill="#163552"/>
  <text x="662" y="452" fill="#F8FBFF" font-size="24" font-family="Inter, Arial, sans-serif" font-weight="700">Recommendation</text>
  <text x="662" y="492" fill="#9FD8FF" font-size="34" font-family="Inter, Arial, sans-serif" font-weight="800">Advance to final round</text>
  <rect x="626" y="556" width="422" height="126" rx="26" fill="#102A43"/>
  <text x="662" y="598" fill="#F8FBFF" font-size="24" font-family="Inter, Arial, sans-serif" font-weight="700">Highlights</text>
  <rect x="662" y="620" width="154" height="14" rx="7" fill="#22C1EE" fill-opacity="0.4"/>
  <rect x="662" y="648" width="218" height="14" rx="7" fill="#34D399" fill-opacity="0.4"/>
  <rect x="662" y="676" width="172" height="14" rx="7" fill="#F59E0B" fill-opacity="0.4"/>
</svg>
